<?xml version="1.0" standalone="no"?>
<!DOCTYPE svg PUBLIC "-//W3C//DTD SVG 20010904//EN"
 "http://www.w3.org/TR/2001/REC-SVG-20010904/DTD/svg10.dtd">
<svg version="1.0" xmlns="http://www.w3.org/2000/svg"
 width="277.361791pt" height="202.000000pt" viewBox="0 0 277.361791 202.000000"
 preserveAspectRatio="xMidYMid meet">
<metadata>
Created by potrace 1.12, written by Peter Selinger 2001-2015
</metadata>
<g transform="translate(-9.572791,243.000000) scale(0.100000,-0.100000)"
fill="#000000" stroke="none">
<path d="M671 2416 c-26 -14 -50 -51 -51 -77 0 -9 32 -110 70 -225 39 -114 70
-212 70 -218 0 -6 -24 -24 -53 -40 -92 -51 -182 -124 -278 -224 -102 -105
-146 -167 -203 -279 -95 -190 -127 -313 -129 -492 l-1 -123 34 -29 c30 -26
205 -119 222 -119 4 0 8 96 10 212 5 248 13 279 89 362 165 181 450 103 514
-140 11 -44 15 -117 15 -300 l0 -243 58 -7 c75 -11 813 -11 874 -1 l46 8 4
277 3 277 28 60 c34 73 76 118 142 153 43 23 63 27 135 27 76 0 91 -3 138 -29
65 -36 107 -82 141 -156 25 -53 26 -62 29 -283 2 -125 7 -227 11 -227 18 0
150 49 198 74 84 42 87 50 80 239 -6 163 -19 242 -58 346 -38 104 -105 224
-166 300 -84 105 -300 287 -382 320 -17 8 -31 18 -31 24 0 6 25 106 55 222 30
117 55 225 55 240 0 40 -50 85 -94 85 -68 0 -80 -22 -141 -254 -30 -115 -56
-210 -57 -211 -2 -2 -41 8 -88 21 -156 45 -259 58 -485 58 -219 0 -303 -10
-456 -55 -36 -10 -69 -19 -72 -19 -3 0 -36 91 -73 202 -50 152 -74 210 -95
230 -30 31 -69 36 -108 14z m633 -688 c-1 -24 -11 -50 -28 -72 -22 -29 -24
-39 -16 -61 16 -42 12 -102 -10 -145 -36 -70 -92 -80 -146 -26 -32 32 -40 57
-36 109 2 15 -7 17 -62 17 -65 0 -96 14 -96 45 0 24 22 30 110 30 114 0 170
26 208 96 22 41 31 49 52 47 22 -3 25 -8 24 -40z m376 -5 c38 -73 90 -97 210
-99 92 -1 95 -2 98 -24 5 -34 -23 -50 -90 -50 l-58 0 0 -39 c0 -23 -9 -51 -23
-72 -64 -96 -177 -40 -177 88 0 30 5 63 11 75 9 16 7 24 -10 42 -32 34 -54 95
-40 112 24 29 53 16 79 -33z m-170 -439 c109 -92 167 -420 92 -524 -10 -14
-42 -37 -72 -52 -103 -53 -205 -30 -257 59 -26 45 -28 55 -27 153 1 172 52
331 118 371 46 28 107 25 146 -7z"/>
<path d="M2206 1166 c-48 -18 -90 -58 -116 -111 -19 -38 -20 -62 -20 -333 l0
-292 200 0 200 0 0 288 0 288 -27 55 c-48 93 -147 137 -237 105z"/>
<path d="M595 1141 c-22 -10 -52 -31 -67 -47 -55 -59 -58 -78 -58 -394 l0
-290 200 0 200 0 0 292 c0 274 -1 294 -21 334 -36 75 -111 124 -189 124 -14 0
-43 -9 -65 -19z"/>
</g>
</svg>
